<svg width="90" height="90" viewBox="0 0 90 90" fill="none" xmlns="http://www.w3.org/2000/svg">
<rect width="90" height="90" rx="45" fill="#74BF45"/>
<path d="M59.0897 15C54.7593 14.9907 50.582 16.6012 47.3787 19.5152L31.1332 35.5119C28.7885 37.8712 27.1949 40.872 26.5535 44.1359C25.912 47.3997 26.2514 50.7804 27.5288 53.8516L29.6245 58.3038H39.3324L39.1702 57.9677L35.5619 50.4996C34.9577 48.9964 34.8043 47.3498 35.1205 45.7608C35.4367 44.1719 36.2088 42.7094 37.3425 41.5521L53.3656 25.7658C54.9423 24.3643 56.9801 23.5929 59.0897 23.599C61.3382 23.5849 63.5004 24.4635 65.1019 26.0419C66.7034 27.6203 67.6132 29.7696 67.6319 32.018C67.6406 34.1998 66.7855 36.2964 65.2532 37.8495L53.6225 49.2951L58.7914 56.4304L71.4691 43.8828C74.6026 40.7296 76.3598 36.4637 76.3561 32.0184C76.3561 22.6353 68.6108 15.0004 59.0909 15.0004" fill="white"/>
<path d="M45.4706 45.6875C44.4413 44.4866 43.2575 43.4272 41.9501 42.537L40.166 44.2938C39.5835 44.9012 39.1842 45.6607 39.0141 46.4849C38.844 47.3092 38.9101 48.1647 39.2046 48.953L41.6794 54.0706L50.8895 66.8106H60.7888L45.673 45.9435L45.4706 45.6875Z" fill="white"/>
<path d="M32.2514 62.7346L35.3142 67.0179H31.6841C26.1705 67.0179 21.6823 62.5943 21.6823 57.1584C21.6812 55.4998 22.1065 53.8688 22.9172 52.4218C21.991 48.8332 22.0623 45.0598 23.1234 41.5088C20.2722 43.012 17.8837 45.2625 16.2138 48.0193C14.5438 50.7761 13.6553 53.9353 13.6436 57.1584C13.6436 66.9637 21.7372 74.9424 31.6841 74.9424H40.9797L41.0217 75H50.8755L42.0905 62.7346H32.2514Z" fill="white"/>
</svg>
