<?xml version="1.0" encoding="UTF-8"?><svg id="Layer_1" xmlns="http://www.w3.org/2000/svg" viewBox="25 25 100 100" fill="none"><path d="M75,30c-24.85,0-45,20.15-45,45s20.15,45,45,45,45-20.15,45-45-20.15-45-45-45ZM61.66,105.4c-9.95,0-18.01-8.07-18.01-18.01,0-6.88,3.86-12.86,9.54-15.89-.58,1.92-.89,3.96-.89,6.07,0,1.75.22,3.44.62,5.06-.82,1.44-1.3,3.1-1.3,4.87,0,5.43,4.4,9.83,9.83,9.83l2.62.03h1.26s-3.07-4.35-3.07-4.35h9.85l8.79,12.39h-19.22ZM80.88,97.16l-9.2-12.92-2.53-5.35h0c-.22-.5-.34-1.05-.34-1.62,0-1.36.68-2.56,1.71-3.3.64-.45,1.41-.72,2.24-.74.89.79,2.41,2.28,4.1,4.48.46.59.93,1.23,1.4,1.92,2.77,3.87,12.52,17.53,12.52,17.53h-9.91ZM101.52,73.88l-12.73,12.74-5.18-7.24,11.3-11.3c1.68-1.56,2.74-3.78,2.74-6.25,0-4.72-3.82-8.54-8.54-8.54-2.15,0-4.12.8-5.62,2.12h0s-.13.12-.13.12c-.19.17-.37.35-.54.54l-7.36,7.35-7.96,7.95s-.05.05-.07.07l-.21.21h.01c-1.4,1.53-2.27,3.56-2.27,5.8,0,1.45.36,2.82,1,4.01l3.37,7.08h-9.71l-1.35-2.92c-1.31-2.44-2.05-5.22-2.05-8.18,0-4.37,1.62-8.36,4.29-11.4l17.53-17.47c2.99-2.47,6.83-3.96,11.01-3.96,9.55,0,17.3,7.74,17.3,17.3,0,4.66-1.84,8.88-4.84,11.99Z" fill="#74bf45"/></svg>
